<svg xmlns="http://www.w3.org/2000/svg" baseProfile="tiny" version="1.2" viewBox="0 0 100 100" width="100" height="100"><path d="M92.7 25.2c-2.9 0-5.2 2.4-5.2 5.2 0 1.9 1 3.5 2.5 4.5l-3.3 10.4c-.6-.2-1.2-.3-1.7-.4l-2.1-8c1.6-.9 2.7-2.6 2.7-4.6 0-2.9-2.4-5.2-5.2-5.2s-5.2 2.4-5.2 5.2 2.4 5.2 5.2 5.2h.1l2 7.5c-3.3.8-6 3.9-8.5 6.7-2.7 3-5.5 6.2-8.8 6.7-.8-9-3.8-16.1-9-21.2-8.4-8.2-19.3-8.1-19.7-8.1-13 0-23.6 10.6-23.6 23.6 0 4.6 1.9 8.9 4.9 11.9C9.6 67 4.4 69.8 2.3 72.8c-.3.4-.3.9-.1 1.3s.6.7 1.1.7h83.8c.6 0 1.1-.5 1.2-1.1s-.3-1.2-.9-1.4c-2.1-.6-5.4-2.1-6.1-3.5-.1-.3-.1-.5 0-.7.3-.7 1.5-2.2 2.8-3.7 3.4-4 8-9.6 7.4-14-.2-1.6-1.1-3-2.6-4h-.1l3.5-10.8h.4c2.9 0 5.2-2.4 5.2-5.2s-2.3-5.2-5.2-5.2zm-15.1 7.1c0-1.5 1.2-2.8 2.8-2.8s2.8 1.2 2.8 2.8-1.3 2.7-2.8 2.7-2.8-1.2-2.8-2.7zm-41.2-.6c.9 0 10.6.2 17.9 7.4 5.4 5.3 8.2 13.1 8.5 23.1H43.6c1.8-2.7 2.9-5.9 2.9-9.4 0-5.6-4.6-10.2-10.2-10.2s-10.2 4.6-10.2 10.2c0 .7.6 1.2 1.2 1.2s1.2-.6 1.2-1.2c0-4.2 3.4-7.7 7.7-7.7s7.7 3.4 7.7 7.7c0 7.9-6.4 14.4-14.4 14.4-7.9 0-14.4-6.4-14.4-14.4.2-11.7 9.6-21.1 21.3-21.1zm52.7 19.1c.5 3.4-3.9 8.6-6.8 12.1-1.5 1.8-2.7 3.2-3.1 4.2-.4.9-.5 1.9 0 2.8.4.9 1.3 1.8 2.3 2.5H6.3c2.7-2 7.4-4 13.7-5.7 2.7 1.9 6 3 9.6 3 4.7 0 8.9-1.9 11.9-5H64c.7 0 1.2-.6 1.2-1.2 0-.8 0-1.7-.1-2.5 4.3-.6 7.6-4.3 10.6-7.6 4.4-5 7.3-7.8 11.8-4.8 1 .5 1.5 1.3 1.6 2.2zm3.6-17.6c-1.5 0-2.8-1.2-2.8-2.8s1.2-2.8 2.8-2.8 2.8 1.2 2.8 2.8-1.3 2.8-2.8 2.8z"/></svg>